Coordinates
version=1
nRows=8
nColumns=34
inDegrees=yes

Units are S.I. units (second, meters, Newtons, ...)
If the header above contains a line with 'inDegrees', this indicates whether rotational values are in degrees (yes) or radians (no).

endheader
time	pelvis_tilt	pelvis_list	pelvis_rotation	pelvis_tx	pelvis_ty	pelvis_tz	hip_flexion_r	hip_adduction_r	hip_rotation_r	knee_angle_r	ankle_angle_r	subtalar_angle_r	mtp_angle_r	hip_flexion_l	hip_adduction_l	hip_rotation_l	knee_angle_l	ankle_angle_l	subtalar_angle_l	mtp_angle_l	lumbar_extension	lumbar_bending	lumbar_rotation	arm_flex_r	arm_add_r	arm_rot_r	elbow_flex_r	pro_sup_r	arm_flex_l	arm_add_l	arm_rot_l	elbow_flex_l	pro_sup_l
     45.00000000	     90.00000018	    -30.11643544	    190.07454588	      0.15907555	      0.74095536	     -0.27965496	     66.58139574	     -3.82678425	      0.64908238	     51.19057386	      0.00000000	      0.00000000	      0.00000000	     65.36787384	     -1.98651644	      5.30281264	     47.23856218	      0.00000000	      0.00000000	      0.00000000	    -13.50087329	      0.97515030	      6.77825423	      0.00000000	      0.00000000	      0.00000000	      0.00000000	      0.00000000	      0.00000000	      0.00000000	      0.00000000	      0.00000000	      0.00000000
     45.01666670	     90.00000018	    -30.05859325	    190.16408876	      0.16605265	      0.74527544	     -0.27454653	     67.79024536	     -4.03430140	      0.66807682	     52.19807837	      0.00000000	      0.00000000	      0.00000000	     66.50046354	     -1.74147672	      5.46449091	     48.25867867	      0.00000000	      0.00000000	      0.00000000	    -14.04860628	      0.97257048	      6.96536578	      0.00000000	      0.00000000	      0.00000000	      0.00000000	      0.00000000	      0.00000000	      0.00000000	      0.00000000	      0.00000000	      0.00000000
     45.03333330	     90.00000018	    -29.98409411	    190.28357135	      0.17348667	      0.74967416	     -0.26902517	     69.06827031	     -4.31177133	      0.56770501	     53.23657191	      0.00000000	      0.00000000	      0.00000000	     67.72595907	     -1.44964360	      5.70449084	     49.38222038	      0.00000000	      0.00000000	      0.00000000	    -14.45063047	      1.02717444	      7.19048159	      0.00000000	      0.00000000	      0.00000000	      0.00000000	      0.00000000	      0.00000000	      0.00000000	      0.00000000	      0.00000000	      0.00000000
     45.05000000	     90.00000018	    -29.88798289	    190.35734154	      0.18110802	      0.75421143	     -0.26330541	     70.42758465	     -4.55113815	      0.42848981	     54.30883424	      0.00000000	      0.00000000	      0.00000000	     69.00620157	     -1.16343072	      5.94261829	     50.57839657	      0.00000000	      0.00000000	      0.00000000	    -14.85829889	      1.09634809	      7.35704713	      0.00000000	      0.00000000	      0.00000000	      0.00000000	      0.00000000	      0.00000000	      0.00000000	      0.00000000	      0.00000000	      0.00000000
     45.06666670	     90.00000018	    -29.75696214	    190.40157835	      0.18872162	      0.75830671	     -0.25743051	     71.77542327	     -4.77001515	      0.26761650	     55.39193457	      0.00000000	      0.00000000	      0.00000000	     70.23887366	     -0.90569242	      6.19329637	     51.70378250	      0.00000000	      0.00000000	      0.00000000	    -15.39217156	      1.20504930	      7.50923563	      0.00000000	      0.00000000	      0.00000000	      0.00000000	      0.00000000	      0.00000000	      0.00000000	      0.00000000	      0.00000000	      0.00000000
     45.08333330	     90.00000018	    -29.65991268	    190.40776309	      0.19606282	      0.76227133	     -0.25159350	     73.06656868	     -4.99347101	      0.11149309	     56.38754000	      0.00000000	      0.00000000	      0.00000000	     71.41281717	     -0.64894684	      6.43614640	     52.76383651	      0.00000000	      0.00000000	      0.00000000	    -15.95163159	      1.30519864	      7.65427748	      0.00000000	      0.00000000	      0.00000000	      0.00000000	      0.00000000	      0.00000000	      0.00000000	      0.00000000	      0.00000000	      0.00000000
     45.10000000	     90.00000018	    -29.61271940	    190.40276929	      0.20294556	      0.76602605	     -0.24593198	     74.27827324	     -5.24501900	     -0.04025636	     57.31642472	      0.00000000	      0.00000000	      0.00000000	     72.55499084	     -0.34174652	      6.64676236	     53.86905200	      0.00000000	      0.00000000	      0.00000000	    -16.54131001	      1.36368497	      7.75993245	      0.00000000	      0.00000000	      0.00000000	      0.00000000	      0.00000000	      0.00000000	      0.00000000	      0.00000000	      0.00000000	      0.00000000
     45.11666670	     90.00000018	    -29.59120770	    190.38393931	      0.20923677	      0.76949438	     -0.24047948	     75.35901580	     -5.51852490	     -0.20340632	     58.10240573	      0.00000000	      0.00000000	      0.00000000	     73.58452663	     -0.03794189	      6.81459922	     54.82992778	      0.00000000	      0.00000000	      0.00000000	    -17.14003626	      1.39262754	      7.85189547	      0.00000000	      0.00000000	      0.00000000	      0.00000000	      0.00000000	      0.00000000	      0.00000000	      0.00000000	      0.00000000	      0.00000000
